PathFileType	4	(X/Y/Z)	C:/Users/beibeiliu/ov580/test_trc\sequence.11_training_dense_left.trc
DataRate	CameraRate	NumFrames	NumMarkers	Units	OrigDataRate	OrigDataStartFrame	OrigNumFrames
120	120	7	19	mm	120	200	398
Frame#	Time	ThumbCMC			ThumbMCP			ThumbIP			ThumbTip			IndexMCP			IndexPIP			IndexTip			MiddleMCP			MiddlePIP			MiddleTip			RingMCP			RingPIP			RingTip			PinkyMCP			PinkyPIP			PinkyTip			BackHand1			BackHand2			BackHand3	
		X0	Y0	Z0	X1	Y1	Z1	X2	Y2	Z2	X3	Y3	Z3	X4	Y4	Z4	X5	Y5	Z5	X6	Y6	Z6	X7	Y7	Z7	X8	Y8	Z8	X9	Y9	Z9	X10	Y10	Z10	X11	Y11	Z11	X12	Y12	Z12	X13	Y13	Z13	X14	Y14	Z14	X15	Y15	Z15	X16	Y16	Z16	X17	Y17	Z17	X18	Y18	Z18	
199	1.65833	-144.355	-4.26926	16.1316	-130.915	-11.5074	-6.73301	-116.14	-13.5397	-26.2979	-107.311	-16.3181	-39.1414	-142.35	35.9072	-36.4222	-134.327	42.856	-54.3215	-126.128	53.2411	-72.5235	-164.742	40.8734	-42.7812	-166.159	48.9413	-61.2015	-167.72	62.5102	-80.8021	-184.96	30.9664	-39.7924	-184.927	38.0363	-60.5024	-186.348	46.5027	-80.3762	-205.65	16.3135	-39.3335	-203.775	14.7311	-54.5978	-205.71	9.01753	-74.6245	-185.257	22.1195	0.956828	-190.469	14.8319	27.4602	-159.484	22.938	16.0522	
200	1.66667	-145.052	5.71164	16.2883	-131.701	-0.646484	-7.52533	-119.187	-1.77742	-27.4375	-115.082	-1.74638	-46.0121	-151.065	46.2585	-36.4241	-142.78	53.2214	-51.9463	-135.637	64.2297	-72.0061	-177.857	42.2779	-39.7666	-173.986	55.7268	-64.3182	-180.841	63.1113	-84.4928	-189.161	30.8972	-38.6992	-191.773	36.01	-61.2116	-188.781	41.1435	-83.9587	-204.382	12.9279	-37.2131	-201.007	6.76306	-57.8293	-193.989	-5.31732	-77.0938	-195.122	21.4902	4.38823	-197.714	14.1286	28.3606	-172.609	26.2339	20.6325	
201	1.675	-146.792	15.503	16.6204	-129.877	8.03576	-4.66088	-124.236	9.04435	-25.8233	-119.781	7.51237	-47.0151	-161.703	50.8993	-34.4277	-155.315	62.3425	-56.5396	-150.084	70.1736	-71.7541	-183.355	46.4373	-41.5438	-185.234	54.5656	-66.9958	-190.757	61.7257	-86.4298	-198.773	28.7456	-44.3286	-196.949	30.4557	-68.2053	-193.567	32.6475	-89.8466	-204.99	6.67523	-40.7987	-193.501	-3.85865	-60.4652	-178.038	-14.8763	-67.0612	-200.655	22.6637	0.326989	-199.046	13.6349	29.7171	-178.632	31.0205	21.6137	
202	1.68333	-150.904	21.9871	20.5559	-139.354	18.2515	-9.33343	-130.785	17.3626	-29.8306	-124.478	13.5858	-50.8959	-168.372	55.5658	-32.4205	-163.687	67.1909	-55.7543	-162.276	72.2205	-74.7761	-189.973	45.2631	-41.3508	-192.262	54.4503	-68.136	-199.766	55.1625	-88.4712	-197.585	27.4554	-44.4205	-195.557	27.8559	-65.6969	-190.49	25.8311	-87.438	-199.559	0.916903	-43.4191	-187.287	-6.97218	-55.6854	-164.362	-16.4678	-57.6148	-202.087	20.9542	-0.587671	-202.789	14.6947	27.2746	-184.727	33.5367	16.1376	
203	1.69167	-155.748	30.916	17.2795	-138.262	25.3162	-10.7828	-132.237	22.4708	-32.8736	-134.475	15.1773	-51.5494	-178.913	55.8751	-36.0737	-172.885	66.4836	-55.2321	-170.372	70.6077	-78.4513	-196.282	41.1386	-43.157	-198.107	48.9318	-68.667	-200.804	51.8757	-91.9435	-201.051	19.0311	-45.838	-193.555	21.5302	-72.4435	-187.664	17.6668	-92.8552	-197.149	-3.22866	-39.1595	-175.185	-9.49152	-51.9986	-155.276	-10.1228	-45.5173	-207.13	15.2187	-2.6465	-208.524	7.73397	26.3217	-189.17	35.8992	16.4031	
204	1.7	-164.996	33.9762	17.225	-143.718	31.1318	-9.35951	-138.709	24.2346	-27.9297	-138.241	12.8481	-52.7402	-184.409	57.3884	-41.0599	-182.198	59.3567	-63.4455	-175.221	65.2088	-85.214	-202.255	33.202	-46.4943	-203.782	38.044	-69.0784	-205.797	36.8408	-94.991	-199.227	15.2491	-46.5138	-191.125	13.8496	-72.965	-182.731	10.6716	-88.5747	-191.771	-8.65669	-38.6537	-167.712	-10.7299	-46.7691	-147.395	-7.50678	-34.2636	-207.242	12.9499	-1.11969	-207.295	7.90454	25.3654	-198.416	33.2144	16.3773	
205	1.70833	-169.244	40.6652	16.4418	-147.869	36.0442	-5.91235	-142.677	26.8906	-31.5464	-137.774	13.8073	-49.3646	-192.027	49.43	-40.4179	-185.612	57.8185	-65.0914	-179.849	58.4575	-86.0617	-203.523	28.8365	-48.3288	-205.091	26.8374	-72.6488	-205.473	26.6385	-98.9971	-198.698	5.06615	-50.2612	-188.685	5.0487	-73.1098	-177.23	8.78251	-87.2065	-182.738	-10.444	-40.9032	-160.251	-9.37983	-42.2911	-145.45	2.70207	-29.1577	-209.516	7.18217	-2.1877	-209.096	-1.18862	24.2308	-204.449	27.8963	14.0591	
